<svg id="Camada_5" data-name="Camada 5" xmlns="http://www.w3.org/2000/svg" viewBox="0 0 1080 936"><defs><style>.cls-1,.cls-3{fill:#0d4d79;}.cls-2,.cls-4{fill:#2aac40;}.cls-3,.cls-4{font-size:203.47px;font-family:Futuris-Bold;font-weight:700;}</style></defs><path class="cls-1" d="M471.94,505.52C206.79,338.17,67.7,534.86,67.7,534.86c216.39-129,339.7,6,354.84,24.12-140.64-41.39-189.67-5.65-189.67-5.65,54.13-3.49,95.78,12.65,122.79,28.4v45.6A122.69,122.69,0,0,0,478.35,750h212V632.48c121.7-4.52,185.82-48.72,185.82-48.72S699.09,648.89,471.94,505.52Z"/><path class="cls-2" d="M690.36,212.66V133a123,123,0,0,0-123-123H355.66V212.66H153V380c122.25,6,127.86-6.37,166.8-22.28C397,326.22,456.72,115.41,456.72,115.41c0,46.72,23.91,75,23.91,75,1.09-17.39,11.95-41.3,11.95-41.3-3.26,28.26,13,42.38,13,42.38,70.64,0,79.33,39.12,86.94,46.73a51.19,51.19,0,0,0,16.3,10.87c79.32,11.95,78.24,28.25,78.24,28.25,1.08,50-56.51,79.33-56.51,79.33l-53.25-1.09c-81.5,25-77.15,110.84-77.15,110.84,78.24,53.25,198.86,60.85,198.86,60.85-1.09-3.26,1.09-22.82,3.26-31.51s22.82-32.6,16.3-44.55S686,437.06,686,437.06l-8.69-31.51L700.14,386l3.26-15.22c19.56-16.3,44.55-25,44.55-25,1.09-5.43-3.26-26.08-3.26-26.08,22.82,3.26,34.77,17.39,34.77,17.39l3.26-10.87c40.21,48.9,43.47,96.71,48.9,125S893,486.57,893,486.57V212.66Z"/><text class="cls-3" transform="translate(6.39 922.97) scale(0.98 1)">Animal</text><text class="cls-4" transform="translate(732.82 923.67) scale(0.98 1)">Life</text></svg>